<svg width="512" height="512" viewBox="0 0 512 512" fill="none" xmlns="http://www.w3.org/2000/svg">
<g clip-path="url(#clip0_1_90)">
<rect width="512" height="512" fill="white"/>
<path d="M68.947 225.82C68.364 224.243 68.292 219.022 68.335 217.196C69.241 178.936 87.005 140.978 113.525 114.259C138.811 88.643 172.101 72.449 207.864 68.368C217.578 67.235 226.296 67.288 236.032 67.276L236.014 73.593L232.994 73.708C216.73 75.019 202.897 81.236 192.205 93.844C183.79 103.798 179.014 116.32 178.662 129.349C178.78 158.68 197.294 181.137 226.013 186.978C236.287 188.094 245.217 187.757 255.625 189.33C287.418 194.236 316.207 210.913 336.279 236.054C344.508 246.342 349.877 255.937 355.034 267.943C358.501 277.104 360.583 283.806 362.481 293.583C365.22 310.908 364.512 326.857 364.512 344.309L364.489 408.986L364.495 444.736C346.115 444.2 330.538 438.169 317.547 424.931C295.803 402.773 298.691 376.72 299.119 348.049C298.762 337.087 299.018 324.356 299.008 313.269C264.946 312.672 229.423 313.199 195.248 313.216C197.415 315.073 199.677 316.238 202.114 317.671C213.339 324.269 224.974 330.296 236.135 336.989C233.901 339.182 229.934 339.237 226.811 339.92C218.22 341.801 211.003 345.306 203.536 349.936C181.777 336.747 159.57 324.195 137.75 311.098C134.301 309.028 130.89 307.089 127.608 304.747C125.477 304.022 121.945 301.699 119.864 300.573C92.449 285.734 70.899 257.663 68.947 225.82Z" fill="#162838"/>
<path d="M226.013 186.978C236.287 188.094 245.217 187.757 255.625 189.33C287.418 194.236 316.207 210.913 336.279 236.054C344.508 246.342 349.877 255.937 355.034 267.943C350.105 268.306 338.756 267.933 333.381 267.936L286.486 267.952L237.699 267.971C219.906 267.995 206.108 268.944 188.421 265.452C184.615 258.942 182.451 250.829 182.087 243.319C181.166 226.35 188.504 209.982 201.785 199.379C204.718 196.994 207.151 195.267 210.466 193.466C214.073 191.506 223.892 189.851 226.013 186.978Z" fill="#344555"/>
<path d="M68.947 225.82C68.364 224.243 68.292 219.022 68.335 217.196C69.241 178.936 87.005 140.978 113.525 114.259C138.811 88.643 172.101 72.449 207.864 68.368C217.578 67.235 226.296 67.288 236.032 67.276L236.014 73.593L232.994 73.708C216.73 75.019 202.897 81.236 192.205 93.844C183.79 103.798 179.014 116.32 178.662 129.349C174.244 129.158 167.404 130.149 163.009 130.975C141.05 135.027 121.173 144.294 104.617 159.417C89.518 173.209 78.966 190.66 72.131 209.874C70.79 213.645 68.816 218.081 68.976 221.954C69.03 223.254 69.252 224.567 68.947 225.82Z" fill="#344555"/>
<path d="M188.421 265.452C206.108 268.944 219.906 267.995 237.699 267.971L286.486 267.952L333.381 267.936C338.756 267.933 350.105 268.306 355.034 267.943C358.501 277.104 360.583 283.806 362.481 293.583C318.705 292.434 273.488 294.802 229.605 293.055C226.358 292.925 221.718 291.884 218.597 290.895C205.521 286.827 194.641 277.653 188.421 265.452Z" fill="#293A4A"/>
<path d="M299.119 348.049C299.969 349.536 299.484 349.529 299.658 351.155C303.093 383.252 330.864 408.983 363.305 409.104C363.7 409.065 364.094 409.025 364.489 408.986L364.495 444.736C346.115 444.2 330.538 438.169 317.547 424.931C295.803 402.773 298.691 376.72 299.119 348.049Z" fill="#344555"/>
<path d="M127.608 304.747C131.401 305.128 134.127 306.873 137.646 308.04C155.004 313.799 177.099 314.328 195.248 313.216C197.415 315.073 199.677 316.238 202.114 317.671C213.339 324.269 224.974 330.296 236.135 336.989C233.901 339.182 229.934 339.237 226.811 339.92C218.22 341.801 211.003 345.306 203.536 349.936C181.777 336.747 159.57 324.195 137.75 311.098C134.301 309.028 130.89 307.089 127.608 304.747Z" fill="#5E3410"/>
<path d="M236.032 67.276L306.648 67.332C325.654 67.326 350.748 66.033 368.465 70.648C386.123 75.294 402.186 84.653 414.937 97.723C429.071 111.994 438.465 130.273 441.841 150.073C442.426 153.652 444.302 165.168 443.151 168.223L442.223 168.515C419.572 168.139 395.88 168.492 373.161 168.491L236.071 168.488L236.041 129.249C236.14 112.973 236.789 90.378 235.937 74.564C234.985 73.511 234.911 73.863 232.994 73.708L236.014 73.593L236.032 67.276Z" fill="#F58443"/>
<path d="M236.041 129.249L347.417 129.217L377.191 129.222C397.5 129.232 413.284 128.43 428.624 143.948C434.562 149.955 441.157 160.071 442.223 168.515C419.572 168.139 395.88 168.492 373.161 168.491L236.071 168.488L236.041 129.249Z" fill="#C96832"/>
<path d="M236.032 67.276L306.648 67.332C325.654 67.326 350.748 66.033 368.465 70.648C386.123 75.294 402.186 84.653 414.937 97.723C429.071 111.994 438.465 130.273 441.841 150.073C439.715 147.484 437.773 140.46 436.331 136.861C430.467 122.23 423.536 111.902 412.168 101.095C399.516 89.069 383.957 80.537 367.015 76.336C353.325 72.943 338.95 73.266 324.922 73.484C295.394 73.942 265.506 72.856 236.014 73.593L236.032 67.276Z" fill="#F5AB50"/>
<path d="M236.135 336.989C254.885 346.963 273.523 358.553 292.227 368.713C292.059 383.611 291.993 390.836 297.024 405.083L203.536 349.936C211.003 345.306 218.22 341.801 226.811 339.92C229.934 339.237 233.901 339.182 236.135 336.989Z" fill="#79451F"/>
<path d="M206.655 370.071L207.648 370.236C212.746 379.083 212.951 395.351 210.333 405.247C206.676 418.94 197.709 430.609 185.42 437.667C180.133 440.696 174.581 442.623 168.619 443.816L167.735 443.405C165.987 439.556 165.084 436.079 164.317 431.946C161.692 417.893 164.823 403.375 173.007 391.654C180.925 380.29 193.025 372.529 206.655 370.071Z" fill="#1EA249"/>
<path d="M168.619 443.816L167.735 443.405C165.987 439.556 165.084 436.079 164.317 431.946C161.692 417.893 164.823 403.375 173.007 391.654C180.925 380.29 193.025 372.529 206.655 370.071C199.295 387.162 187.349 405.962 178.963 422.838C176.528 427.738 169.425 439.301 168.619 443.816Z" fill="#2AB46C"/>
<path d="M107.447 375.221C120.129 351.401 145.798 339.848 171.774 350.991C174.856 352.314 181.127 354.916 182.728 357.865L182.288 359.04C176.013 371.189 166.437 379.984 153.283 384.199C140.481 388.21 126.617 387.054 114.657 380.978C112.496 379.855 108.184 377.444 107.447 375.221Z" fill="#1EA249"/>
<path d="M107.447 375.221C120.129 351.401 145.798 339.848 171.774 350.991C174.856 352.314 181.127 354.916 182.728 357.865L182.288 359.04C181.434 358.334 181.641 358.201 180.898 358.311C174.536 359.253 167.634 361.09 161.363 362.618L124.337 371.639C119.774 372.732 111.732 374.876 107.447 375.221Z" fill="#2AB46C"/>
<path d="M210.138 93.537C211.824 93.422 213.247 93.339 214.936 93.558C218.677 94.007 222.071 95.966 224.331 98.98C226.709 102.198 227.473 106.335 226.657 110.227C225.912 113.894 223.694 117.095 220.523 119.081C216.515 121.549 212.76 121.451 208.395 120.403C202.934 117.874 197.637 111.636 199.617 105.328C202.153 104.755 207.119 110.51 210.847 106.955C215.459 102.557 215.017 98.994 210.614 94.869L210.192 94.481L210.138 93.537Z" fill="#162838"/>
</g>
<defs>
<clipPath id="clip0_1_90">
<rect width="512" height="512" fill="white"/>
</clipPath>
</defs>
</svg>
